grf
version=1
nRows=14
nColumns=37
inDegrees=no
endheader
time	ground_force_1_vx	ground_force_1_vy	ground_force_1_vz	ground_force_1_px	ground_force_1_py	ground_force_1_pz	ground_moment_1_mx	ground_moment_1_my	ground_moment_1_mz	ground_force_2_vx	ground_force_2_vy	ground_force_2_vz	ground_force_2_px	ground_force_2_py	ground_force_2_pz	ground_moment_2_mx	ground_moment_2_my	ground_moment_2_mz	ground_force_3_vx	ground_force_3_vy	ground_force_3_vz	ground_force_3_px	ground_force_3_py	ground_force_3_pz	ground_moment_3_mx	ground_moment_3_my	ground_moment_3_mz	ground_force_4_vx	ground_force_4_vy	ground_force_4_vz	ground_force_4_px	ground_force_4_py	ground_force_4_pz	ground_moment_4_mx	ground_moment_4_my	ground_moment_4_mz
      0.00000000	      0.00000000	     -0.00000000	      0.00000000	      0.00000000	      0.00000000	      0.00000000	      0.00000000	      0.00000000	      0.00000000	     -5.19126034	      8.50745583	    -43.17921829	   -308.60038520	  -1108.02854758	      0.00000000	      0.00000000	     -0.00000000	    -82.87685348	      5.32263932	    -88.89736222	   -864.08477783	   -364.20197123	   -718.32327521	      0.00000000	      0.00000000	     -0.00000000	   -259.07244322	      0.00000000	     -0.00000000	      0.00000000	      0.00000000	      0.00000000	      0.00000000	      0.00000000	      0.00000000	      0.00000000
      0.01000000	      0.00000000	     -0.00000000	      0.00000000	      0.00000000	      0.00000000	      0.00000000	      0.00000000	      0.00000000	      0.00000000	     -3.05363321	      8.49027920	    -51.22073364	   -315.02442146	  -1109.03410031	      0.00000000	      0.00000000	      0.00000000	     61.40889840	      5.05650687	    -89.97967574	   -856.73846436	   -364.22886188	   -718.17996215	      0.00000000	      0.00000000	      0.00000000	   -325.11502955	      0.00000000	     -0.00000000	      0.00000000	      0.00000000	      0.00000000	      0.00000000	      0.00000000	      0.00000000	      0.00000000
      0.02000000	      0.00000000	     -0.00000000	      0.00000000	      0.00000000	      0.00000000	      0.00000000	      0.00000000	      0.00000000	      0.00000000	     -2.78636789	      8.82390976	    -58.99646759	   -313.67100935	  -1109.37827743	      0.00000000	      0.00000000	     -0.00000000	    -55.73723606	      4.63353418	    -90.15595286	   -849.48583984	   -363.86264711	   -717.77730227	      0.00000000	      0.00000000	     -0.00000000	   -290.39068268	      0.00000000	     -0.00000000	      0.00000000	      0.00000000	      0.00000000	      0.00000000	      0.00000000	      0.00000000	      0.00000000
      0.03000000	      0.00000000	     -0.00000000	      0.00000000	      0.00000000	      0.00000000	      0.00000000	      0.00000000	      0.00000000	      0.00000000	     -3.50036001	      9.67602158	    -72.39580536	   -311.61064522	  -1119.62806707	      0.00000000	      0.00000000	     -0.00000000	    246.43989430	      4.36770840	    -90.48813667	   -838.40197754	   -363.81154640	   -718.19724991	      0.00000000	      0.00000000	     -0.00000000	   -253.83994235	      0.00000000	     -0.00000000	      0.00000000	      0.00000000	      0.00000000	      0.00000000	      0.00000000	      0.00000000	      0.00000000
      0.04000000	      0.00000000	     -0.00000000	      0.00000000	      0.00000000	      0.00000000	      0.00000000	      0.00000000	      0.00000000	      0.00000000	     -4.81736755	     11.81026363	    -82.28707886	   -314.58760866	  -1108.17063933	      0.00000000	      0.00000000	      0.00000000	    358.73863886	      4.05822106	    -90.41903722	   -828.27148438	   -363.61403508	   -717.72003453	      0.00000000	      0.00000000	     -0.00000000	   -265.53776788	      0.00000000	     -0.00000000	      0.00000000	      0.00000000	      0.00000000	      0.00000000	      0.00000000	      0.00000000	      0.00000000
      0.05000000	      0.00000000	     -0.00000000	      0.00000000	      0.00000000	      0.00000000	      0.00000000	      0.00000000	      0.00000000	      0.00000000	     -6.73515177	     13.30235004	    -93.24524689	   -315.40409239	  -1109.71390767	      0.00000000	      0.00000000	      0.00000000	    595.30290050	      3.61546139	    -89.53660615	   -815.26904297	   -362.98682260	   -717.72798642	      0.00000000	      0.00000000	     -0.00000000	   -287.12510002	      0.00000000	     -0.00000000	      0.00000000	      0.00000000	      0.00000000	      0.00000000	      0.00000000	      0.00000000	      0.00000000
      0.06000000	      0.00000000	     -0.00000000	      0.00000000	      0.00000000	      0.00000000	      0.00000000	      0.00000000	      0.00000000	      0.00000000	     -8.27427578	     14.92934418	   -106.92519379	   -314.45331458	  -1111.75340736	      0.00000000	      0.00000000	      0.00000000	    545.88299826	      2.88318645	    -88.78579737	   -800.43048096	   -362.84763573	   -718.15255676	      0.00000000	      0.00000000	     -0.00000000	   -247.95697160	      0.00000000	     -0.00000000	      0.00000000	      0.00000000	      0.00000000	      0.00000000	      0.00000000	      0.00000000	      0.00000000
      0.07000000	      0.00000000	     -0.00000000	      0.00000000	      0.00000000	      0.00000000	      0.00000000	      0.00000000	      0.00000000	      0.00000000	     -9.47892952	     16.22173309	   -121.58177948	   -313.55564253	  -1118.45423331	      0.00000000	      0.00000000	      0.00000000	    918.84203947	      2.83918226	    -88.65273310	   -788.73437500	   -362.51441055	   -717.38003376	      0.00000000	      0.00000000	     -0.00000000	   -574.28626595	      0.00000000	     -0.00000000	      0.00000000	      0.00000000	      0.00000000	      0.00000000	      0.00000000	      0.00000000	      0.00000000
      0.08000000	      0.00000000	     -0.00000000	      0.00000000	      0.00000000	      0.00000000	      0.00000000	      0.00000000	      0.00000000	      0.00000000	    -10.57189846	     17.09098053	   -132.52629089	   -316.51920896	  -1114.99631237	      0.00000000	      0.00000000	      0.00000000	   1042.17963452	      2.04034040	    -87.59323138	   -773.72302246	   -362.49330688	   -717.57265166	      0.00000000	      0.00000000	     -0.00000000	   -552.87968653	      0.00000000	     -0.00000000	      0.00000000	      0.00000000	      0.00000000	      0.00000000	      0.00000000	      0.00000000	      0.00000000
      0.09000000	      0.00000000	     -0.00000000	      0.00000000	      0.00000000	      0.00000000	      0.00000000	      0.00000000	      0.00000000	      0.00000000	    -11.32679462	     17.35851288	   -149.30244446	   -322.25681297	  -1116.31506042	      0.00000000	      0.00000000	      0.00000000	   1444.40148637	      1.17382337	    -87.08770762	   -757.57299805	   -361.81937549	   -718.08364861	      0.00000000	      0.00000000	     -0.00000000	   -602.84123449	      0.00000000	     -0.00000000	      0.00000000	      0.00000000	      0.00000000	      0.00000000	      0.00000000	      0.00000000	      0.00000000
      0.10000000	      0.00000000	     -0.00000000	      0.00000000	      0.00000000	      0.00000000	      0.00000000	      0.00000000	      0.00000000	      0.00000000	    -11.41698647	     17.76070023	   -171.38638306	   -329.27522543	  -1114.22909749	      0.00000000	      0.00000000	      0.00000000	   1723.20193666	      0.95582838	    -85.82703408	   -741.95416260	   -361.69240317	   -717.74602430	      0.00000000	      0.00000000	     -0.00000000	   -780.29230751	      0.00000000	     -0.00000000	      0.00000000	      0.00000000	      0.00000000	      0.00000000	      0.00000000	      0.00000000	      0.00000000
      0.11000000	      0.00000000	     -0.00000000	      0.00000000	      0.00000000	      0.00000000	      0.00000000	      0.00000000	      0.00000000	      0.00000000	    -10.59671116	     18.98003960	   -192.82685852	   -336.81904703	  -1110.77562829	      0.00000000	      0.00000000	      0.00000000	   2161.66495967	      0.24665327	    -84.12964632	   -724.57476807	   -360.88255916	   -717.75956439	      0.00000000	      0.00000000	     -0.00000000	   -892.78580704	      0.00000000	     -0.00000000	      0.00000000	      0.00000000	      0.00000000	      0.00000000	      0.00000000	      0.00000000	      0.00000000
      0.12000000	      0.00000000	     -0.00000000	      0.00000000	      0.00000000	      0.00000000	      0.00000000	      0.00000000	      0.00000000	      0.00000000	    -10.92975521	     21.68023682	   -218.71539307	   -345.44553784	  -1110.64627886	      0.00000000	      0.00000000	      0.00000000	   2349.40526469	     -0.48927960	    -82.13917537	   -704.85253906	   -360.19714462	   -717.39626141	      0.00000000	      0.00000000	     -0.00000000	  -1134.10681490	      0.00000000	     -0.00000000	      0.00000000	      0.00000000	      0.00000000	      0.00000000	      0.00000000	      0.00000000	      0.00000000
      0.13000000	      0.00000000	     -0.00000000	      0.00000000	      0.00000000	      0.00000000	      0.00000000	      0.00000000	      0.00000000	      0.00000000	    -10.59118080	     25.28818703	   -241.73133850	   -350.09583158	  -1107.59709767	      0.00000000	      0.00000000	      0.00000000	   2212.98844618	     -1.75284784	    -79.66616806	   -683.91650391	   -358.94121750	   -716.62332198	      0.00000000	      0.00000000	     -0.00000000	  -1142.17585413	      0.00000000	     -0.00000000	      0.00000000	      0.00000000	      0.00000000	      0.00000000	      0.00000000	      0.00000000	      0.00000000
